<svg
              xmlns="http://www.w3.org/2000/svg"
              width="24"
              height="24"
              style="enable-background: new 0 0 24 24"
              xml:space="preserve"
              fill="#F05451"
            >
              <path
                d="M3.9 7.7h-.4c-.1 0-.2 0-.3.1-.1 0-.1.1-.2.2v2.7c0 .3 0 .5-.1.6-.1.2-.2.3-.4.4-.1.1-.3.2-.4.2-.2 0-.3.1-.4.1h.4H2c.2 0 .3.1.4.2.1.1.3.2.4.4.1.2.2.5.2.8v2.3c0 .1 0 .2.1.3 0 .1.1.2.2.2s.2.1.4.1H4v2.3H2.6c-.2 0-.4 0-.6-.1-.2-.1-.4-.2-.5-.3-.2-.1-.3-.3-.4-.6-.1-.3-.1-.6-.1-.9v-2.6c0-.2 0-.4-.1-.5l-.3-.3c-.1-.1-.2-.1-.3-.1H0V11h.3c.1 0 .2 0 .3-.1.1-.1.2-.1.3-.3 0-.2.1-.3.1-.5V7.3c0-.3 0-.6.1-.8.1-.2.2-.4.4-.6.2-.1.3-.3.5-.3.2-.1.4-.1.6-.1h1.3v2.2zm16.2 0h.4c.1 0 .2 0 .3.1.1 0 .1.1.2.2v2.7c0 .3 0 .5.1.6.1.2.2.3.4.4.1.1.3.2.4.2.2 0 .3.1.4.1h-.4.1c-.2 0-.3.1-.4.2-.1.1-.3.2-.4.4-.1.2-.1.4-.1.7v2.3c0 .1 0 .2-.1.3 0 .1-.1.2-.2.2s-.2.1-.4.1H20v2.3h1.3c.2 0 .4 0 .6-.1s.4-.2.5-.3c.2-.1.3-.3.4-.6.2-.2.2-.5.2-.8v-2.6c0-.2 0-.4.1-.5l.3-.3c.1-.1.2-.1.3-.1h.3V11h-.3c-.1 0-.2 0-.3-.1-.1-.1-.2-.1-.3-.3-.1-.1-.1-.3-.1-.4V7.3c0-.3 0-.6-.1-.8-.1-.2-.2-.4-.4-.6-.2-.1-.3-.3-.5-.3-.2-.1-.4-.1-.6-.1h-1.3v2.2zm-4.2 6L8.3 5.9H6.4v1.8l7.7 7.8-1.4 1.4.9.9 1.6-1.6 2.1 2.1c.3.3.7.3.9 0l.5-.5c.3-.3.3-.7 0-.9l-2.1-2.1 1.6-1.6-.9-.9-1.4 1.4zm1.7-5.9-3.1 3.1L12.7 9l3.1-3.1h1.8v1.9zm-8.1 4.5 1.8 1.9-1.4 1.4 1.4 1.4-.9.9-1.6-1.6-2.1 2.1c-.3.3-.7.3-.9 0l-.5-.5c-.3-.3-.3-.7 0-.9l2.1-2.1-1.6-1.6.9-.9 1.4 1.4 1.4-1.5z"
                style="fill-rule: evenodd; clip-rule: evenodd"
              />
            </svg>