<?xml version="1.0" encoding="utf-8"?>
<!-- Generator: Adobe Illustrator 26.2.1, SVG Export Plug-In . SVG Version: 6.00 Build 0)  -->
<svg version="1.1" id="Layer_1" xmlns="http://www.w3.org/2000/svg" xmlns:xlink="http://www.w3.org/1999/xlink" x="0px" y="0px"
	 viewBox="0 0 519 74" style="enable-background:new 0 0 519 74;" xml:space="preserve">
<style type="text/css">
	.st0{fill:#244CEA;}
	.st1{fill:#1C283B;}
</style>
<g>
	<path class="st0" d="M14.01,57.11H2.14L20.22,4.75h14.27l18.05,52.36H40.67l-13.12-40.4h-0.41L14.01,57.11z M13.27,36.53h28.02
		v8.64H13.27V36.53z"/>
	<path class="st0" d="M58.62,57.11V17.84h10.56v6.85h0.41c0.72-2.44,1.92-4.28,3.6-5.54s3.63-1.88,5.83-1.88
		c0.55,0,1.13,0.03,1.76,0.1c0.63,0.07,1.18,0.16,1.66,0.28v9.66c-0.51-0.15-1.22-0.29-2.12-0.41c-0.9-0.12-1.73-0.18-2.48-0.18
		c-1.6,0-3.03,0.35-4.28,1.04c-1.25,0.69-2.24,1.65-2.97,2.88c-0.72,1.23-1.09,2.64-1.09,4.24v22.22H58.62z"/>
	<path class="st0" d="M88.05,17.84h10.89v41.09c0,3.03-0.6,5.51-1.8,7.41s-2.92,3.3-5.16,4.18c-2.24,0.88-4.94,1.27-8.09,1.19
		c-0.29,0-0.59,0-0.91,0s-0.69-0.02-1.11-0.05v-8.51c0.29,0.02,0.54,0.03,0.75,0.04c0.21,0.01,0.44,0.01,0.68,0.01
		c1.76,0,2.99-0.37,3.69-1.11c0.71-0.74,1.06-1.85,1.06-3.34V17.84z M93.5,12.78c-1.62,0-3.01-0.54-4.17-1.61
		c-1.16-1.07-1.74-2.37-1.74-3.89c0-1.52,0.58-2.82,1.74-3.9s2.54-1.62,4.14-1.62c1.64,0,3.03,0.54,4.18,1.61
		c1.15,1.07,1.73,2.37,1.73,3.89s-0.58,2.82-1.73,3.9C96.5,12.24,95.12,12.78,93.5,12.78z"/>
	<path class="st0" d="M132.82,40.39V17.84h10.89v39.27h-10.46v-7.13h-0.41c-0.89,2.3-2.36,4.15-4.41,5.55
		c-2.05,1.4-4.56,2.1-7.5,2.1c-2.62,0-4.93-0.6-6.93-1.79c-1.99-1.19-3.55-2.89-4.67-5.09c-1.12-2.2-1.68-4.83-1.7-7.9V17.84h10.89
		V40.9c0.02,2.32,0.64,4.15,1.87,5.5c1.23,1.35,2.87,2.02,4.93,2.02c1.31,0,2.54-0.3,3.68-0.91c1.14-0.6,2.07-1.5,2.77-2.7
		C132.49,43.62,132.84,42.15,132.82,40.39z"/>
	<path class="st0" d="M163.3,34.41v22.7H152.4V17.84h10.38v6.93h0.46c0.87-2.28,2.33-4.09,4.37-5.43c2.05-1.34,4.53-2.01,7.44-2.01
		c2.73,0,5.1,0.6,7.13,1.79c2.03,1.19,3.61,2.89,4.73,5.1c1.12,2.21,1.69,4.84,1.69,7.89v25.01h-10.89V34.05
		c0.02-2.4-0.6-4.28-1.84-5.64c-1.24-1.35-2.96-2.03-5.14-2.03c-1.47,0-2.76,0.32-3.87,0.95c-1.12,0.63-1.99,1.55-2.61,2.75
		C163.63,31.28,163.31,32.72,163.3,34.41z"/>
	<path class="st1" d="M248.8,21.68c-0.36-1.24-0.86-2.35-1.51-3.31c-0.65-0.96-1.44-1.78-2.37-2.45s-1.99-1.19-3.17-1.55
		s-2.49-0.54-3.92-0.54c-2.68,0-5.02,0.67-7.04,1.99c-2.02,1.33-3.59,3.26-4.72,5.79s-1.69,5.62-1.69,9.27
		c0,3.65,0.55,6.75,1.66,9.31c1.11,2.56,2.68,4.5,4.7,5.84c2.03,1.34,4.42,2.01,7.18,2.01c2.51,0,4.65-0.45,6.43-1.34
		s3.15-2.16,4.09-3.8c0.95-1.64,1.42-3.57,1.42-5.8l2.25,0.33h-13.5v-8.34h21.91v6.6c0,4.6-0.97,8.55-2.91,11.85
		s-4.62,5.84-8.03,7.62c-3.41,1.78-7.31,2.67-11.71,2.67c-4.91,0-9.22-1.09-12.94-3.26s-6.61-5.27-8.68-9.28
		c-2.07-4.01-3.11-8.78-3.11-14.31c0-4.24,0.62-8.03,1.85-11.36s2.97-6.16,5.2-8.48c2.23-2.32,4.83-4.08,7.8-5.29
		c2.97-1.21,6.18-1.82,9.64-1.82c2.97,0,5.73,0.43,8.28,1.29c2.56,0.86,4.83,2.08,6.81,3.64c1.99,1.57,3.61,3.43,4.87,5.59
		c1.26,2.16,2.07,4.53,2.43,7.12H248.8z"/>
	<path class="st1" d="M279.84,57.86c-2.51,0-4.74-0.44-6.7-1.32c-1.96-0.88-3.51-2.18-4.64-3.91c-1.13-1.73-1.7-3.89-1.7-6.48
		c0-2.18,0.4-4.01,1.2-5.5c0.8-1.48,1.89-2.68,3.27-3.58c1.38-0.9,2.95-1.59,4.72-2.05c1.76-0.46,3.62-0.78,5.56-0.97
		c2.28-0.24,4.12-0.46,5.52-0.68c1.4-0.21,2.41-0.53,3.04-0.96c0.63-0.43,0.95-1.06,0.95-1.89v-0.15c0-1.62-0.51-2.87-1.52-3.76
		c-1.01-0.89-2.45-1.33-4.31-1.33c-1.96,0-3.52,0.43-4.68,1.29s-1.93,1.94-2.3,3.23l-10.07-0.82c0.51-2.39,1.52-4.45,3.02-6.2
		c1.5-1.75,3.44-3.09,5.82-4.04c2.38-0.95,5.13-1.42,8.27-1.42c2.18,0,4.27,0.26,6.28,0.77c2,0.51,3.78,1.3,5.34,2.38
		s2.79,2.45,3.69,4.13s1.36,3.69,1.36,6.02v26.49h-10.33v-5.45h-0.31c-0.63,1.23-1.47,2.31-2.53,3.23
		c-1.06,0.93-2.33,1.65-3.81,2.17C283.49,57.6,281.78,57.86,279.84,57.86z M282.95,50.34c1.6,0,3.02-0.32,4.24-0.96
		c1.23-0.64,2.19-1.5,2.89-2.6c0.7-1.09,1.05-2.33,1.05-3.71v-4.17c-0.34,0.22-0.81,0.42-1.39,0.6c-0.59,0.18-1.25,0.34-1.98,0.49
		c-0.73,0.15-1.47,0.27-2.2,0.38c-0.73,0.11-1.4,0.21-1.99,0.29c-1.28,0.19-2.4,0.49-3.35,0.9c-0.96,0.41-1.7,0.96-2.22,1.65
		c-0.53,0.69-0.79,1.55-0.79,2.57c0,1.48,0.54,2.61,1.62,3.39C279.91,49.95,281.28,50.34,282.95,50.34z"/>
	<path class="st1" d="M321.31,34.41v22.7h-10.89V17.84h10.38v6.93h0.46c0.87-2.28,2.33-4.09,4.37-5.43
		c2.05-1.34,4.53-2.01,7.44-2.01c2.73,0,5.1,0.6,7.13,1.79c2.03,1.19,3.61,2.89,4.73,5.1c1.12,2.21,1.69,4.84,1.69,7.89v25.01
		h-10.89V34.05c0.02-2.4-0.6-4.28-1.84-5.64c-1.24-1.35-2.96-2.03-5.14-2.03c-1.47,0-2.76,0.32-3.87,0.95
		c-1.12,0.63-1.99,1.55-2.61,2.75C321.64,31.28,321.32,32.72,321.31,34.41z"/>
	<path class="st1" d="M373.08,57.88c-4.04,0-7.51-0.82-10.42-2.47s-5.14-3.98-6.71-7.01c-1.57-3.03-2.35-6.61-2.35-10.75
		c0-4.04,0.78-7.58,2.35-10.64c1.57-3.05,3.78-5.43,6.63-7.13s6.21-2.56,10.06-2.56c2.59,0,5.01,0.41,7.25,1.24
		c2.24,0.83,4.2,2.07,5.88,3.72c1.68,1.65,2.99,3.73,3.92,6.23c0.94,2.5,1.41,5.42,1.41,8.76v2.99h-33.16v-6.75h22.91
		c0-1.57-0.34-2.96-1.02-4.17c-0.68-1.21-1.62-2.16-2.83-2.85c-1.2-0.69-2.6-1.04-4.18-1.04c-1.65,0-3.12,0.38-4.39,1.14
		c-1.27,0.76-2.26,1.77-2.98,3.04c-0.72,1.27-1.08,2.68-1.1,4.23v6.42c0,1.94,0.36,3.62,1.09,5.04c0.72,1.42,1.75,2.51,3.08,3.27
		s2.91,1.15,4.73,1.15c1.21,0,2.32-0.17,3.32-0.51c1.01-0.34,1.87-0.85,2.58-1.53c0.72-0.68,1.26-1.52,1.64-2.51l10.07,0.66
		c-0.51,2.42-1.56,4.53-3.13,6.33c-1.58,1.8-3.6,3.2-6.09,4.19C379.18,57.38,376.32,57.88,373.08,57.88z"/>
	<path class="st1" d="M430.89,29.04l-9.97,0.61c-0.17-0.85-0.54-1.62-1.1-2.31c-0.56-0.69-1.3-1.24-2.21-1.66
		c-0.91-0.42-2-0.63-3.26-0.63c-1.69,0-3.11,0.35-4.27,1.06c-1.16,0.71-1.74,1.65-1.74,2.83c0,0.94,0.37,1.73,1.12,2.38
		c0.75,0.65,2.04,1.17,3.86,1.56l7.11,1.43c3.82,0.78,6.66,2.05,8.54,3.78c1.88,1.74,2.81,4.02,2.81,6.85
		c0,2.57-0.75,4.83-2.26,6.78c-1.51,1.94-3.57,3.46-6.19,4.54c-2.62,1.08-5.63,1.62-9.04,1.62c-5.2,0-9.34-1.09-12.41-3.26
		c-3.08-2.17-4.88-5.14-5.41-8.89l10.71-0.56c0.32,1.59,1.11,2.79,2.35,3.62c1.24,0.83,2.84,1.24,4.78,1.24
		c1.91,0,3.45-0.37,4.62-1.11c1.17-0.74,1.76-1.7,1.78-2.88c-0.02-0.99-0.43-1.8-1.25-2.44s-2.08-1.13-3.78-1.47l-6.8-1.35
		c-3.83-0.77-6.69-2.1-8.55-3.99c-1.87-1.89-2.8-4.3-2.8-7.24c0-2.52,0.69-4.7,2.06-6.52c1.37-1.82,3.31-3.23,5.8-4.22
		c2.5-0.99,5.42-1.48,8.78-1.48c4.96,0,8.87,1.05,11.72,3.15S430.41,25.43,430.89,29.04z"/>
	<path class="st1" d="M449.86,57.86c-2.51,0-4.74-0.44-6.7-1.32c-1.96-0.88-3.51-2.18-4.64-3.91c-1.13-1.73-1.7-3.89-1.7-6.48
		c0-2.18,0.4-4.01,1.2-5.5c0.8-1.48,1.89-2.68,3.27-3.58c1.38-0.9,2.95-1.59,4.72-2.05c1.76-0.46,3.62-0.78,5.56-0.97
		c2.28-0.24,4.12-0.46,5.52-0.68c1.4-0.21,2.41-0.53,3.04-0.96c0.63-0.43,0.95-1.06,0.95-1.89v-0.15c0-1.62-0.51-2.87-1.52-3.76
		c-1.01-0.89-2.45-1.33-4.31-1.33c-1.96,0-3.52,0.43-4.68,1.29c-1.16,0.86-1.93,1.94-2.3,3.23l-10.07-0.82
		c0.51-2.39,1.52-4.45,3.02-6.2c1.5-1.75,3.44-3.09,5.82-4.04c2.38-0.95,5.14-1.42,8.27-1.42c2.18,0,4.27,0.26,6.28,0.77
		s3.78,1.3,5.34,2.38s2.79,2.45,3.69,4.13s1.36,3.69,1.36,6.02v26.49h-10.33v-5.45h-0.31c-0.63,1.23-1.47,2.31-2.53,3.23
		s-2.33,1.65-3.81,2.17C453.52,57.6,451.8,57.86,449.86,57.86z M452.98,50.34c1.6,0,3.02-0.32,4.24-0.96s2.19-1.5,2.89-2.6
		c0.7-1.09,1.05-2.33,1.05-3.71v-4.17c-0.34,0.22-0.81,0.42-1.39,0.6c-0.59,0.18-1.25,0.34-1.98,0.49c-0.73,0.15-1.47,0.27-2.2,0.38
		c-0.73,0.11-1.4,0.21-1.99,0.29c-1.28,0.19-2.39,0.49-3.35,0.9c-0.95,0.41-1.7,0.96-2.22,1.65c-0.53,0.69-0.79,1.55-0.79,2.57
		c0,1.48,0.54,2.61,1.62,3.39C449.93,49.95,451.31,50.34,452.98,50.34z"/>
	<path class="st1" d="M491.33,34.41v22.7h-10.89V17.84h10.38v6.93h0.46c0.87-2.28,2.33-4.09,4.37-5.43
		c2.05-1.34,4.53-2.01,7.44-2.01c2.73,0,5.1,0.6,7.13,1.79c2.03,1.19,3.6,2.89,4.73,5.1c1.12,2.21,1.69,4.84,1.69,7.89v25.01h-10.89
		V34.05c0.02-2.4-0.6-4.28-1.84-5.64s-2.96-2.03-5.14-2.03c-1.47,0-2.76,0.32-3.87,0.95c-1.12,0.63-1.99,1.55-2.61,2.75
		C491.67,31.28,491.35,32.72,491.33,34.41z"/>
</g>
</svg>
